<svg width="80" height="81" viewBox="0 0 80 81" fill="none" xmlns="http://www.w3.org/2000/svg">
<path d="M53.9665 7.16699H26.0332C13.8998 7.16699 6.6665 14.4003 6.6665 26.5337V54.4337C6.6665 66.6003 13.8998 73.8337 26.0332 73.8337H53.9332C66.0665 73.8337 73.2998 66.6003 73.2998 54.467V26.5337C73.3332 14.4003 66.0998 7.16699 53.9665 7.16699ZM59.9998 43.0003H42.4998V60.5003C42.4998 61.867 41.3665 63.0003 39.9998 63.0003C38.6332 63.0003 37.4998 61.867 37.4998 60.5003V43.0003H19.9998C18.6332 43.0003 17.4998 41.867 17.4998 40.5003C17.4998 39.1337 18.6332 38.0003 19.9998 38.0003H37.4998V20.5003C37.4998 19.1337 38.6332 18.0003 39.9998 18.0003C41.3665 18.0003 42.4998 19.1337 42.4998 20.5003V38.0003H59.9998C61.3665 38.0003 62.4998 39.1337 62.4998 40.5003C62.4998 41.867 61.3665 43.0003 59.9998 43.0003Z" fill="#00408E"/>
</svg>
